<svg width="25" height="24" viewBox="0 0 25 24" fill="none" xmlns="http://www.w3.org/2000/svg">
<g clip-path="url(#clip0_2_2)">
<path d="M13.5 1.00001C13.5 0.734794 13.6053 0.48044 13.7929 0.292903C13.9804 0.105367 14.2348 1.00536e-05 14.5 1.00536e-05C17.1513 0.00292165 19.6931 1.05743 21.5678 2.93216C23.4426 4.80689 24.4971 7.34874 24.5 10C24.5 10.2652 24.3946 10.5196 24.2071 10.7071C24.0196 10.8947 23.7652 11 23.5 11C23.2348 11 22.9804 10.8947 22.7929 10.7071C22.6053 10.5196 22.5 10.2652 22.5 10C22.4976 7.87901 21.654 5.84556 20.1542 4.34579C18.6544 2.84601 16.621 2.00239 14.5 2.00001C14.2348 2.00001 13.9804 1.89465 13.7929 1.70712C13.6053 1.51958 13.5 1.26523 13.5 1.00001ZM14.5 6.00001C15.5609 6.00001 16.5783 6.42144 17.3284 7.17158C18.0786 7.92173 18.5 8.93914 18.5 10C18.5 10.2652 18.6053 10.5196 18.7929 10.7071C18.9804 10.8947 19.2348 11 19.5 11C19.7652 11 20.0196 10.8947 20.2071 10.7071C20.3946 10.5196 20.5 10.2652 20.5 10C20.4984 8.4092 19.8657 6.884 18.7409 5.75912C17.616 4.63425 16.0908 4.0016 14.5 4.00001C14.2348 4.00001 13.9804 4.10537 13.7929 4.2929C13.6053 4.48044 13.5 4.73479 13.5 5.00001C13.5 5.26523 13.6053 5.51958 13.7929 5.70712C13.9804 5.89465 14.2348 6.00001 14.5 6.00001ZM23.593 16.739C24.1725 17.3201 24.4979 18.1073 24.4979 18.928C24.4979 19.7487 24.1725 20.5359 23.593 21.117L22.683 22.166C14.493 30.007 -5.43701 10.082 2.28299 1.86601L3.43299 0.86601C4.01475 0.302687 4.79492 -0.00894087 5.60469 -0.0014551C6.41446 0.00603066 7.18873 0.332028 7.75999 0.90601C7.79099 0.93701 9.64399 3.34401 9.64399 3.34401C10.1938 3.92164 10.4999 4.68894 10.4986 5.48641C10.4973 6.28389 10.1887 7.05018 9.63699 7.62601L8.47899 9.08201C9.11983 10.6391 10.062 12.0543 11.2515 13.2461C12.4409 14.438 13.8542 15.383 15.41 16.027L16.875 14.862C17.4509 14.3107 18.217 14.0025 19.0143 14.0014C19.8115 14.0003 20.5785 14.3063 21.156 14.856C21.156 14.856 23.562 16.708 23.593 16.739ZM22.217 18.193C22.217 18.193 19.824 16.352 19.793 16.321C19.587 16.1167 19.3086 16.0021 19.0185 16.0021C18.7284 16.0021 18.45 16.1167 18.244 16.321C18.217 16.349 16.2 17.956 16.2 17.956C16.0641 18.0642 15.9023 18.1351 15.7306 18.1618C15.559 18.1884 15.3833 18.1699 15.221 18.108C13.2054 17.3576 11.3747 16.1827 9.85282 14.6631C8.33092 13.1434 7.15339 11.3144 6.39999 9.30001C6.33318 9.13547 6.31141 8.9561 6.33689 8.78035C6.36237 8.6046 6.4342 8.43881 6.54499 8.30001C6.54499 8.30001 8.15199 6.28201 8.17899 6.25601C8.38325 6.05 8.49787 5.77163 8.49787 5.48151C8.49787 5.19139 8.38325 4.91302 8.17899 4.70701C8.14799 4.67701 6.30699 2.28201 6.30699 2.28201C6.09789 2.09452 5.82499 1.99411 5.54423 2.00136C5.26348 2.00861 4.99613 2.12297 4.79699 2.32101L3.64699 3.32101C-1.99501 10.105 15.276 26.418 21.221 20.8L22.132 19.75C22.3455 19.5523 22.4737 19.2793 22.4896 18.9887C22.5054 18.6982 22.4077 18.4128 22.217 18.193Z" fill="white"/>
</g>
<defs>
<clipPath id="clip0_2_2">
<rect width="24" height="24" fill="white" transform="translate(0.5)"/>
</clipPath>
</defs>
</svg>
