<svg width="84" height="84" viewBox="0 0 84 84" fill="none" xmlns="http://www.w3.org/2000/svg">
<rect width="84" height="84" rx="42" fill="black"/>
<path d="M42.5501 57.684C42.5501 58.484 42.4861 59.044 42.3581 59.364C42.2621 59.684 42.1181 59.86 41.9261 59.892C41.7341 59.924 41.3181 59.94 40.6781 59.94L39.8621 59.892C39.3181 59.892 38.8221 59.908 38.3741 59.94C36.3261 60.004 33.4781 60.036 29.8301 60.036C26.3101 60.036 23.4621 60.02 21.2861 59.988V59.028H20.3261V57.684C20.5501 53.172 20.6621 47.86 20.6621 41.748C20.6621 34.9 20.5981 29.124 20.4701 24.42C20.8861 24.26 21.4621 24.132 22.1981 24.036C22.9661 23.908 23.7341 23.844 24.5021 23.844C26.4221 23.844 27.9581 24.1 29.1101 24.612L29.0621 25.236C29.2221 25.3 29.3821 25.364 29.5421 25.428C29.7021 25.46 29.8781 25.508 30.0701 25.572C30.0061 27.876 29.9741 29.78 29.9741 31.284C29.9741 33.204 30.0061 36.084 30.0701 39.924L30.1181 48.42V50.34C34.4701 50.596 37.6381 50.724 39.6221 50.724C40.2301 50.724 40.8861 50.692 41.5901 50.628V51.684L42.5501 51.588C42.5501 52.26 42.5181 52.916 42.4541 53.556L42.4061 54.564L42.4541 55.044V55.092L42.5501 57.684ZM40.9661 53.652C40.9661 53.396 40.9981 52.98 41.0621 52.404L41.1101 51.204C41.0461 51.236 40.8061 51.252 40.3901 51.252C39.7821 51.252 38.2621 51.188 35.8301 51.06C35.2541 51.028 34.3261 50.98 33.0461 50.916C31.7981 50.852 30.8221 50.82 30.1181 50.82C29.6061 50.82 29.1261 50.852 28.6781 50.916V50.868L28.7261 47.124C28.7261 45.364 28.6941 42.628 28.6301 38.916C28.5661 35.268 28.5341 32.516 28.5341 30.66C28.5341 29.316 28.5661 27.396 28.6301 24.9C27.7341 24.516 26.3581 24.324 24.5021 24.324C23.7661 24.324 23.0621 24.372 22.3901 24.468C21.7501 24.532 21.2701 24.628 20.9501 24.756C21.0781 31.124 21.1421 36.788 21.1421 41.748C21.1421 47.86 21.0301 53.172 20.8061 57.684V58.548C21.7341 58.548 22.4061 58.564 22.8221 58.596L29.3981 58.644C31.9581 58.644 34.7261 58.596 37.7021 58.5C38.0861 58.468 38.5341 58.452 39.0461 58.452L40.1021 58.5C40.5181 58.5 40.7901 58.404 40.9181 58.212C41.0461 58.02 41.1101 57.524 41.1101 56.724L41.0141 54.132L40.9661 53.652ZM59.3951 38.436C59.6191 39.108 59.7311 39.844 59.7311 40.644C59.7311 41.412 59.7151 42.004 59.6831 42.42L59.6351 44.58C59.6351 45.06 59.6511 45.492 59.6831 45.876C59.7151 46.228 59.7311 46.548 59.7311 46.836C59.7311 47.156 59.2671 47.396 58.3391 47.556C57.4431 47.684 56.1791 47.812 54.5471 47.94C54.3231 47.972 54.0991 47.988 53.8751 47.988C53.6831 47.988 53.5071 48.004 53.3471 48.036C53.1231 51.268 53.0111 54.564 53.0111 57.924V59.844C51.6031 60.004 49.7311 60.084 47.3951 60.084C45.3471 60.084 44.0991 59.924 43.6511 59.604V58.98C43.1391 58.884 42.8191 58.772 42.6911 58.644C42.6911 52.116 42.7071 47.332 42.7391 44.292L42.7871 25.428C43.8751 25.204 45.7311 25.012 48.3551 24.852C50.9791 24.66 53.5391 24.564 56.0351 24.564C59.8431 24.564 62.8991 24.836 65.2031 25.38V26.148C65.3311 26.212 65.6511 26.276 66.1631 26.34C66.1631 27.14 66.1791 27.796 66.2111 28.308L66.2591 30.996C66.2591 31.732 66.2111 32.82 66.1151 34.26L61.6991 34.5C57.5711 34.724 54.7391 34.9 53.2031 35.028C53.0111 35.732 52.9151 36.292 52.9151 36.708L52.8671 37.236C52.8671 37.556 53.1071 37.716 53.5871 37.716C55.5711 37.716 57.1871 37.636 58.4351 37.476C58.5311 37.7 58.6111 38.052 58.6751 38.532L59.3951 38.436ZM58.2911 45.876C58.2271 45.172 58.1951 44.58 58.1951 44.1L58.2431 41.796C58.2751 41.316 58.2911 40.644 58.2911 39.78C58.2911 38.884 58.2431 38.292 58.1471 38.004C57.6031 38.1 56.8351 38.148 55.8431 38.148C54.8831 38.148 54.2591 38.148 53.9711 38.148C53.2991 38.148 52.7871 38.1 52.4351 38.004C52.1151 37.908 51.8751 37.7 51.7151 37.38C51.5551 37.028 51.4751 36.484 51.4751 35.748C51.4751 34.948 51.6191 34.244 51.9071 33.636C53.3151 33.508 56.0511 33.332 60.1151 33.108C61.5871 33.076 63.1231 32.996 64.7231 32.868C64.7551 32.58 64.7711 32.068 64.7711 31.332V29.364L64.7231 25.764C62.8031 25.284 59.9071 25.044 56.0351 25.044C53.5391 25.044 51.0591 25.14 48.5951 25.332C46.1311 25.492 44.3551 25.668 43.2671 25.86V32.724L43.2191 43.812C43.1871 45.828 43.1711 48.9 43.1711 53.028L43.2191 58.452C43.4431 58.58 44.5151 58.644 46.4351 58.644C48.7071 58.644 50.4191 58.58 51.5711 58.452V56.964C51.6351 52.42 51.7631 48.996 51.9551 46.692H52.0031C52.6431 46.564 53.6671 46.436 55.0751 46.308C56.4831 46.18 57.5071 46.068 58.1471 45.972C58.2431 45.972 58.2911 45.94 58.2911 45.876Z" fill="white"/>
</svg>
